HIERARCHY
ROOT root
{
	OFFSET 0.000000 0.000000 0.000000
	CHANNELS 6 Xposition Yposition Zposition Zrotation Yrotation Xrotation
	JOINT lhip
	{
		OFFSET 0.058581 -0.082280 -0.017664
		CHANNELS 3 Zrotation Yrotation Xrotation
		JOINT lknee
		{
			OFFSET 0.043451 -0.386469 0.008037
			CHANNELS 3 Zrotation Yrotation Xrotation
			JOINT lankle
			{
				OFFSET -0.014790 -0.426874 -0.037428
				CHANNELS 3 Zrotation Yrotation Xrotation
				JOINT ltoe
				{
					OFFSET 0.041054 -0.060286 0.122042
					CHANNELS 3 Zrotation Yrotation Xrotation
					End Site
					{
						OFFSET 0.000000 0.000000 0.000000
					}
				}
			}
		}
	}
	JOINT rhip
	{
		OFFSET -0.060310 -0.090513 -0.013543
		CHANNELS 3 Zrotation Yrotation Xrotation
		JOINT rknee
		{
			OFFSET -0.043257 -0.383688 -0.004843
			CHANNELS 3 Zrotation Yrotation Xrotation
			JOINT rankle
			{
				OFFSET 0.019056 -0.420046 -0.034562
				CHANNELS 3 Zrotation Yrotation Xrotation
				JOINT rtoe
				{
					OFFSET -0.034840 -0.062106 0.130323
					CHANNELS 3 Zrotation Yrotation Xrotation
					End Site
					{
						OFFSET 0.000000 0.000000 0.000000
					}
				}
			}
		}
	}
	JOINT lowerback
	{
		OFFSET 0.004439 0.124404 -0.038385
		CHANNELS 3 Zrotation Yrotation Xrotation
		JOINT upperback
		{
			OFFSET 0.004488 0.137956 0.026820
			CHANNELS 3 Zrotation Yrotation Xrotation
			JOINT chest
			{
				OFFSET -0.002265 0.056032 0.002855
				CHANNELS 3 Zrotation Yrotation Xrotation
				JOINT lowerneck
				{
					OFFSET -0.013390 0.211636 -0.033468
					CHANNELS 3 Zrotation Yrotation Xrotation
					JOINT upperneck
					{
						OFFSET 0.010113 0.088937 0.050410
						CHANNELS 3 Zrotation Yrotation Xrotation
						End Site
						{
							OFFSET 0.000000 0.000000 0.000000
						}
					}
				}
				JOINT lclavicle
				{
					OFFSET 0.071702 0.114000 -0.018898
					CHANNELS 3 Zrotation Yrotation Xrotation
					JOINT lshoulder
					{
						OFFSET 0.122921 0.045205 -0.019046
						CHANNELS 3 Zrotation Yrotation Xrotation
						JOINT lelbow
						{
							OFFSET 0.255332 -0.015649 -0.022946
							CHANNELS 3 Zrotation Yrotation Xrotation
							JOINT lwrist
							{
								OFFSET 0.265709 0.012698 -0.007375
								CHANNELS 3 Zrotation Yrotation Xrotation
								End Site
								{
									OFFSET 0.000000 0.000000 0.000000
								}
							}
						}
					}
				}
				JOINT rclavicle
				{
					OFFSET -0.082954 0.112472 -0.023707
					CHANNELS 3 Zrotation Yrotation Xrotation
					JOINT rshoulder
					{
						OFFSET -0.113228 0.046853 -0.008472
						CHANNELS 3 Zrotation Yrotation Xrotation
						JOINT relbow
						{
							OFFSET -0.260127 -0.014369 -0.031269
							CHANNELS 3 Zrotation Yrotation Xrotation
							JOINT rwrist
							{
								OFFSET -0.269108 0.006794 -0.006027
								CHANNELS 3 Zrotation Yrotation Xrotation
								End Site
								{
									OFFSET 0.000000 0.000000 0.000000
								}
							}
						}
					}
				}
			}
		}
	}
}
MOTION
Frames: 11
Frame Time: 0.033333
0.719634 0.763087 0.991456 86.662062 2.020049 85.372391 -0.368102 3.817469 4.174449 -3.706422 1.055186 -2.342171 11.267771 11.982422 -7.628719 0.000000 -0.000000 0.000000 -5.385792 -4.384242 -10.863386 0.733551 -5.143007 51.568521 5.143010 -9.427321 12.796582 0.000000 -0.000000 0.000000 -4.333205 0.899606 5.199236 2.163382 -2.110443 9.776285 -0.538091 -0.091256 0.047770 -1.614150 -19.766514 9.606098 7.877156 -15.138745 -2.547878 -25.902242 -1.135674 8.290967 -50.544796 -3.353724 9.092877 11.370939 -43.131478 -2.844570 15.327779 0.280654 -10.021064 24.953972 7.655090 5.916236 57.771926 2.493163 13.381366 -18.806763 39.992797 -8.636961 1.790052 3.219404 0.255235 
0.719526 0.763268 0.991372 86.864200 2.076572 85.353428 -0.285490 3.804524 4.178472 -3.773151 0.849565 -2.340747 11.127658 11.976472 -7.690367 0.000000 -0.000000 0.000000 -5.249419 -4.360806 -10.793785 0.761575 -5.088496 51.573016 5.091465 -9.614396 12.632866 0.000000 -0.000000 0.000000 -4.236817 0.788298 5.201913 2.108957 -2.052535 9.758028 -0.561341 -0.108967 0.181817 -1.587898 -19.751002 9.267703 7.606974 -15.185192 -2.289681 -25.893516 -1.091405 8.337144 -50.550421 -3.494705 9.066980 11.604331 -43.451399 -2.923352 15.018360 0.377781 -10.569580 24.904018 7.691385 5.964687 57.912894 2.450965 13.531274 -19.028382 39.971328 -8.488637 2.274786 3.089374 -0.270936 
0.719203 0.763497 0.991353 87.112856 2.051824 85.374967 -0.323865 3.875097 4.109737 -3.773228 0.554459 -2.321540 10.993552 11.936230 -7.682316 0.000000 -0.000000 0.000000 -5.199490 -4.285575 -10.791235 0.700860 -5.127851 51.568944 5.069959 -9.787883 12.510309 0.000000 -0.000000 0.000000 -4.232302 0.664194 5.261628 2.042172 -2.010555 9.747428 -0.571460 -0.112184 0.301210 -1.516160 -19.732438 8.959963 7.555479 -15.207380 -2.333979 -25.838463 -1.060064 8.280500 -50.641570 -3.610193 9.090892 11.749048 -43.641476 -2.887177 15.280071 0.366146 -10.744678 24.843272 7.683387 5.895959 58.035843 2.392034 13.663168 -19.025570 40.028016 -8.249422 2.144585 3.183016 -0.404373 
0.719292 0.763704 0.991445 87.483727 2.032275 85.241121 -0.349192 3.720392 4.287475 -3.776489 0.365458 -2.364534 10.834296 11.905146 -7.699518 0.000000 -0.000000 0.000000 -5.216259 -3.981083 -10.417860 0.687603 -5.494108 51.378380 4.945094 -10.066423 12.345954 0.000000 -0.000000 0.000000 -4.259992 0.571883 5.606497 1.985762 -1.967227 9.656008 -0.574582 -0.111955 0.315213 -1.455896 -19.688897 8.684819 7.684629 -15.380839 -2.429481 -25.870544 -0.987018 8.317602 -50.612385 -3.592434 9.111663 11.696859 -43.875604 -2.722365 14.844901 -0.033926 -10.900712 24.871471 7.642786 5.804759 58.045018 2.165057 13.674189 -18.834090 39.988853 -7.986446 2.336998 3.207238 -0.382476 
0.718953 0.763558 0.991345 87.466935 2.047405 85.361395 -0.319337 3.637531 4.131032 -3.792901 0.472666 -2.356500 10.843643 11.871145 -7.695500 0.000000 -0.000000 0.000000 -5.142525 -3.996209 -10.592079 0.655846 -5.469321 51.416317 4.900589 -10.111808 12.306559 0.000000 -0.000000 0.000000 -4.252675 0.621543 5.548221 1.976591 -1.930910 9.640330 -0.575174 -0.098756 0.330138 -1.472173 -19.727940 8.607854 7.714791 -15.408657 -2.614076 -25.851141 -0.959713 8.327052 -50.657848 -3.581115 9.141631 11.717894 -44.024188 -2.706305 14.864954 0.072237 -10.949991 24.825441 7.642009 5.819010 58.114287 2.149246 13.707826 -18.855018 39.974591 -7.933800 2.315428 3.088259 -0.480895 
0.718937 0.763598 0.991331 87.667706 2.020524 85.358958 -0.344551 3.573554 4.179469 -3.812373 0.360112 -2.442277 10.825055 11.828116 -7.667232 0.000000 -0.000000 0.000000 -5.175365 -4.009473 -10.497299 0.639893 -5.591022 51.383608 4.866200 -10.166443 12.188349 0.000000 -0.000000 0.000000 -4.247667 0.630126 5.669107 1.914914 -1.904843 9.618318 -0.598592 -0.100316 0.313497 -1.464567 -19.808583 8.601134 7.797619 -15.460924 -2.906666 -25.878646 -0.890106 8.336434 -50.655370 -3.497767 9.158483 11.686406 -44.237066 -2.556017 14.856716 0.132147 -10.899335 24.797659 7.617615 5.828860 58.230928 2.055653 13.688112 -18.858225 39.835675 -7.918224 2.275472 2.927815 -0.543330 
0.718788 0.763501 0.991369 87.833679 1.969520 85.429812 -0.417533 3.534557 4.095818 -3.772358 0.260723 -2.463122 10.764709 11.775221 -7.651007 0.000000 -0.000000 0.000000 -5.238557 -3.952020 -10.502251 0.639947 -5.736103 51.330028 4.934538 -10.156956 12.150962 0.000000 -0.000000 0.000000 -4.280488 0.621883 5.741789 1.844434 -1.880895 9.557825 -0.623710 -0.084448 0.370350 -1.439053 -19.853126 8.531243 7.869234 -15.597261 -3.078605 -25.935515 -0.833324 8.301637 -50.683149 -3.473841 9.136090 11.624261 -44.160309 -2.491046 15.193352 -0.147071 -10.644840 24.799472 7.653386 5.824350 58.338612 2.047830 13.672002 -18.894401 39.673594 -7.946368 1.915372 3.016822 -0.366319 
0.718908 0.763321 0.991256 87.976811 1.940666 85.458423 -0.418466 3.572001 4.112585 -3.786195 0.122362 -2.543251 10.818020 11.698645 -7.672505 0.000000 -0.000000 0.000000 -5.249548 -3.998004 -10.461407 0.669238 -5.676544 51.282762 4.959356 -10.079586 12.213512 0.000000 -0.000000 0.000000 -4.318906 0.661544 5.733826 1.811831 -1.860704 9.671917 -0.644998 -0.062754 0.416943 -1.454469 -19.979068 8.455504 7.912438 -15.699160 -3.256928 -25.866165 -0.827780 8.289491 -50.888678 -3.438788 9.175218 11.579723 -44.166421 -2.366684 15.349884 0.056562 -10.609312 24.760635 7.720938 5.836500 58.436370 2.054021 13.660745 -18.952311 39.597407 -7.999319 1.800330 3.022676 -0.270264 
0.718565 0.762809 0.991136 87.994961 1.950680 85.618054 -0.399552 3.533363 3.870305 -3.757136 0.202516 -2.480920 10.910308 11.590106 -7.637578 0.000000 -0.000000 0.000000 -5.112759 -4.198034 -10.700562 0.591837 -5.447497 51.337416 4.930932 -9.973035 12.205993 0.000000 -0.000000 0.000000 -4.360681 0.826119 5.642195 1.809843 -1.815106 9.789024 -0.649918 -0.037367 0.415177 -1.487225 -20.239756 8.297341 8.003113 -15.933065 -3.566784 -25.824973 -0.827569 8.278409 -50.977269 -3.459642 9.240792 11.443639 -44.048473 -2.269736 15.436034 0.014099 -10.670391 24.728277 7.759666 5.852113 58.412597 2.059565 13.689462 -18.887996 39.670500 -7.947908 1.866720 3.160494 -0.403269 
0.718569 0.762641 0.991189 88.240735 1.916457 85.546314 -0.455821 3.446851 3.967822 -3.701023 -0.003446 -2.529218 10.848153 11.627963 -7.542510 0.000000 -0.000000 0.000000 -5.166428 -4.047570 -10.472788 0.689067 -5.604688 51.196356 4.891493 -10.045095 12.091616 0.000000 -0.000000 0.000000 -4.426792 0.806654 5.863393 1.750455 -1.819731 9.871757 -0.623116 -0.010710 0.390229 -1.500370 -20.386436 8.129073 8.172662 -16.077643 -3.884049 -25.876213 -0.945926 8.363468 -51.023250 -3.207488 9.282883 11.591422 -44.316821 -2.364090 15.300342 0.337333 -10.665194 24.723706 7.911712 5.906055 58.374283 1.931007 13.608575 -18.939255 40.024710 -7.979373 1.994057 3.084688 -0.372362 
0.718036 0.762180 0.991113 88.395555 1.883560 85.674049 -0.456379 3.308767 3.808039 -3.745495 -0.043575 -2.572660 10.774602 11.585519 -7.489042 0.000000 -0.000000 0.000000 -5.149136 -3.935554 -10.557473 0.677995 -5.756375 51.132537 4.996495 -10.131025 12.026190 0.000000 -0.000000 0.000000 -4.542943 0.835102 5.977758 1.713510 -1.794198 9.898916 -0.630498 0.018690 0.394039 -1.409795 -20.513226 7.932323 8.297969 -16.314854 -4.251049 -25.901182 -0.899203 8.334698 -50.955987 -3.143544 9.393747 11.552748 -44.371502 -2.365809 15.159633 0.228652 -10.924702 24.732123 7.955104 5.822779 58.379473 1.969202 13.682363 -19.008394 40.196203 -8.128560 1.795102 3.182978 -0.410965 
